<mxfile host="65bd71144e">
    <diagram id="VG9kCvKHf101lYMXzlZI" name="Page-1">
        <mxGraphModel dx="906" dy="412" grid="1" gridSize="10" guides="1" tooltips="1" connect="1" arrows="1" fold="1" page="1" pageScale="1" pageWidth="827" pageHeight="1169" math="0" shadow="0">
            <root>
                <mxCell id="0"/>
                <mxCell id="1" parent="0"/>
                <mxCell id="2" value="User" style="shape=umlActor;verticalLabelPosition=bottom;verticalAlign=top;html=1;" vertex="1" parent="1">
                    <mxGeometry x="184" y="50" width="30" height="60" as="geometry"/>
                </mxCell>
                <mxCell id="3" value="Data base" style="shape=umlActor;verticalLabelPosition=bottom;verticalAlign=top;html=1;" vertex="1" parent="1">
                    <mxGeometry x="384" y="50" width="30" height="60" as="geometry"/>
                </mxCell>
                <mxCell id="4" value="Server" style="shape=umlActor;verticalLabelPosition=bottom;verticalAlign=top;html=1;" vertex="1" parent="1">
                    <mxGeometry x="184" y="200" width="30" height="60" as="geometry"/>
                </mxCell>
                <mxCell id="5" value="Client" style="shape=umlActor;verticalLabelPosition=bottom;verticalAlign=top;html=1;" vertex="1" parent="1">
                    <mxGeometry x="384" y="200" width="30" height="60" as="geometry"/>
                </mxCell>
            </root>
        </mxGraphModel>
    </diagram>
</mxfile>